{
  "asset": {
    "version": "2.0",
    "generator": "gltfeditor.com",
    "copyright": "CC0, No Rights Reserved. Model and texture created by Eric Chadwick"
  },
  "buffers": [
    {
      "uri": "data:application/octet-stream;base64,",
      "byteLength": 115280
    }
  ],
  "bufferViews": [
    {
      "buffer": 0,
      "byteOffset": 0,
      "byteLength": 41472,
      "byteStride": 24,
      "target": 34962
    },
    {
      "buffer": 0,
      "byteOffset": 41472,
      "byteLength": 13824,
      "byteStride": 8,
      "target": 34962
    },
    {
      "buffer": 0,
      "byteOffset": 55296,
      "byteLength": 18432,
      "target": 34963
    },
    {
      "buffer": 0,
      "byteOffset": 73728,
      "byteLength": 30752,
      "byteStride": 32,
      "target": 34962
    },
    {
      "buffer": 0,
      "byteOffset": 104480,
      "byteLength": 10800,
      "target": 34963
    }
  ],
  "accessors": [
    {
      "bufferView": 0,
      "byteOffset": 0,
      "componentType": 5126,
      "normalized": false,
      "count": 1728,
      "min": [
        -0.5000792145729065,
        -0.4901544749736786,
        -0.5000792145729065
      ],
      "max": [
        0.5000792145729065,
        0.4901543855667114,
        0.5000792145729065
      ],
      "type": "VEC3"
    },
    {
      "bufferView": 0,
      "byteOffset": 12,
      "componentType": 5126,
      "normalized": false,
      "count": 1728,
      "min": [
        -1,
        -1,
        -1
      ],
      "max": [
        1,
        1,
        1
      ],
      "type": "VEC3"
    },
    {
      "bufferView": 1,
      "byteOffset": 0,
      "componentType": 5126,
      "normalized": false,
      "count": 1728,
      "min": [
        0,
        0
      ],
      "max": [
        0.9995999336242676,
        1
      ],
      "type": "VEC2"
    },
    {
      "bufferView": 2,
      "byteOffset": 0,
      "componentType": 5123,
      "normalized": false,
      "count": 9216,
      "min": [
        0
      ],
      "max": [
        1727
      ],
      "type": "SCALAR"
    },
    {
      "bufferView": 3,
      "byteOffset": 0,
      "componentType": 5126,
      "normalized": false,
      "count": 961,
      "min": [
        -1,
        -1,
        -0.9945219159126282
      ],
      "max": [
        1,
        1,
        0.9945219159126282
      ],
      "type": "VEC3"
    },
    {
      "bufferView": 3,
      "byteOffset": 12,
      "componentType": 5126,
      "normalized": false,
      "count": 961,
      "min": [
        -1,
        -1,
        -0.9945219159126282
      ],
      "max": [
        1,
        1,
        0.9945219159126282
      ],
      "type": "VEC3"
    },
    {
      "bufferView": 3,
      "byteOffset": 24,
      "componentType": 5126,
      "normalized": false,
      "count": 961,
      "min": [
        0,
        0
      ],
      "max": [
        1,
        1
      ],
      "type": "VEC2"
    },
    {
      "bufferView": 4,
      "byteOffset": 0,
      "componentType": 5123,
      "normalized": false,
      "count": 5400,
      "min": [
        0
      ],
      "max": [
        960
      ],
      "type": "SCALAR"
    }
  ],
  "scene": 0,
  "scenes": [
    {
      "nodes": [
        0,
        1
      ],
      "name": "ClearCoatCarPaint"
    }
  ],
  "nodes": [
    {
      "name": "Sphere1",
      "matrix": [
        1,
        0,
        0,
        0,
        0,
        1,
        0,
        0,
        0,
        0,
        1,
        0,
        0,
        0.5,
        0,
        1
      ],
      "mesh": 0
    },
    {
      "name": "Sphere2",
      "matrix": [
        0.5,
        0,
        0,
        0,
        0,
        0.5,
        0,
        0,
        0,
        0,
        0.5,
        0,
        2,
        0.5,
        0,
        1
      ],
      "mesh": 1
    }
  ],
  "meshes": [
    {
      "primitives": [
        {
          "material": 0,
          "mode": 4,
          "attributes": {
            "POSITION": 0,
            "NORMAL": 1,
            "TEXCOORD_0": 2
          },
          "indices": 3
        }
      ]
    },
    {
      "primitives": [
        {
          "material": 1,
          "mode": 4,
          "attributes": {
            "POSITION": 4,
            "NORMAL": 5,
            "TEXCOORD_0": 6
          },
          "indices": 7
        }
      ]
    }
  ],
  "materials": [
    {
      "name": "Clear Coat Car Paint",
      "pbrMetallicRoughness": {
        "baseColorFactor": [
          0.7019607843137254,
          0,
          0,
          1
        ],
        "metallicFactor": 0.3,
        "roughnessFactor": 0.4
      },
      "emissiveFactor": [
        0,
        0,
        0
      ],
      "alphaMode": "OPAQUE",
      "doubleSided": false,
      "extensions": {
        "KHR_materials_clearcoat": {
          "clearcoatFactor": 1,
          "clearcoatRoughnessFactor": 0
        }
      },
      "normalTexture": {
        "index": 0,
        "texCoord": 0,
        "extensions": {
          "KHR_texture_transform": {
            "scale": [
              3,
              3
            ],
            "offset": [
              0,
              0
            ],
            "rotation": 0
          }
        },
        "scale": 0.2
      }
    },
    {
      "name": "",
      "pbrMetallicRoughness": {
        "baseColorFactor": [
          0.9176470588235294,
          0.043137254901960784,
          0.043137254901960784,
          1
        ],
        "metallicFactor": 0,
        "roughnessFactor": 0.5
      },
      "emissiveFactor": [
        0,
        0,
        0
      ],
      "alphaMode": "OPAQUE",
      "doubleSided": false
    }
  ],
  "textures": [
    {
      "sampler": 0,
      "name": "ClearCoatCarPaint_Normal.png",
      "source": 0
    }
  ],
  "samplers": [
    {
      "magFilter": 9729,
      "minFilter": 9987,
      "wrapS": 10497,
      "wrapT": 10497
    }
  ],
  "images": [
    {
      "uri": "data:image/png;base64,",
      "mimeType": "image/png",
      "name": "ClearCoatCarPaint_Normal.png"
    }
  ],
  "extensionsRequired": [
    "KHR_texture_transform"
  ],
  "extensionsUsed": [
    "KHR_texture_transform",
    "KHR_materials_clearcoat"
  ]
}
